<svg width="174" height="12" viewBox="0 0 174 12" xmlns="http://www.w3.org/2000/svg"><path d="M8.523.088C7.65.27 6.837.593 6.463.903c-.823.682-1.143 1.84-.73 2.644.31.6 1.445 1.528 3.808 3.106 2.363 1.577 2.655 1.872 2.254 2.277-.172.173-.75.2-5.124.232L1.74 9.2l-.85 1.295c-.463.71-.867 1.347-.89 1.407-.026.067 2.57.094 6.664.067 5.85-.038 6.795-.07 7.408-.25 1.987-.586 3-1.663 3.014-3.206.013-1.34-.494-1.922-3.353-3.853-2.048-1.38-2.247-1.6-1.805-1.968.162-.136 1-.18 3.99-.21l3.787-.036 1.6-2.434-6.27.012C11.582.03 8.657.06 8.523.088zM23.43 1.223l.807 1.223 4.573.037c3.683.03 4.614.07 4.78.212.242.206.173.498-.27 1.134-.568.815-.676.83-5.8.83h-4.58l-2.18 3.316c-1.2 1.822-2.282 3.474-2.405 3.67L18.13 12h5.198l3.126-4.77 3.028-.005c4.58-.006 6.05-.222 7.197-1.056.45-.33 1.747-2.084 2.614-3.54.684-1.15.564-1.846-.398-2.292-.563-.26-.666-.265-8.42-.3L22.626 0l.805 1.223zM41.617.165c.05.085.406.63.793 1.217.387.587.702 1.095.702 1.132 0 .037-1.393 2.177-3.09 4.746l-3.09 4.68 4.417.03c2.43.016 6.432.016 8.904 0l4.488-.03-1.817-2.753h-8.977l1.478-2.202h7.802l.697-1.077c.38-.587.696-1.115.696-1.162 0-.047-1.713-.1-3.82-.116l-3.823-.03 1.478-2.14h9.764L59.83.01H50.68c-7.294 0-9.135.03-9.062.153zm19.505 0c.05.085.407.63.795 1.217.387.587.702 1.095.702 1.132 0 .037-1.393 2.177-3.09 4.746l-3.088 4.68 4.415.03c2.43.016 6.433.016 8.904 0l4.488-.03-1.817-2.753h-8.977l1.478-2.202h7.803l.697-1.077c.38-.587.697-1.115.697-1.162 0-.047-1.715-.1-3.823-.116l-3.822-.03 1.478-2.14h9.765L79.335.01h-9.152c-7.293 0-9.134.03-9.062.153zM81.227 1.23l.812 1.23 5.04.004c5.367.006 5.857.053 5.925.557.023.178-.557 1.163-1.694 2.876-2.27 3.42-1.918 3.214-5.59 3.27l-2.76.045 1.458-2.213c.807-1.223 1.46-2.242 1.46-2.275 0-.034-1.17-.06-2.586-.06h-2.587l-2.29 3.503c-1.262 1.933-2.333 3.582-2.386 3.676-.083.146 1.053.167 7.45.136l7.547-.037.83-.41c.473-.234 1.1-.685 1.454-1.047.35-.356 1.766-2.367 3.218-4.57 2.217-3.363 2.594-4 2.602-4.408.01-.587-.18-.838-.894-1.175C97.7.078 97.52.073 89.053.037L80.413 0l.813 1.23zM105.323.087c-.872.183-1.686.505-2.06.815-.823.682-1.143 1.84-.73 2.644.308.6 1.445 1.528 3.808 3.106 2.363 1.577 2.655 1.872 2.254 2.277-.172.173-.75.2-5.124.232l-4.93.037-.85 1.295c-.463.71-.867 1.347-.89 1.407-.026.067 2.57.094 6.663.067 5.852-.038 6.796-.07 7.41-.25 1.986-.586 3-1.663 3.013-3.206.012-1.34-.494-1.922-3.353-3.853-2.048-1.38-2.247-1.6-1.806-1.968.163-.136 1-.18 3.992-.21l3.785-.036 1.6-2.434-6.27.012c-3.453.007-6.378.036-6.512.064zm14.8 1.147l-.807 1.224h6.18l-6.3 9.54 5.27-.012 6.275-9.53H136l1.525-2.323.77 1.162c.42.636.77 1.19.77 1.223 0 .034-1.394 2.17-3.09 4.74l-3.09 4.68 4.49.03c2.47.016 6.472.016 8.903 0l4.416-.03-1.817-2.753H139.9l1.478-2.202h7.802l.697-1.077c.38-.587.696-1.115.696-1.162 0-.047-1.714-.1-3.822-.116l-3.82-.03 1.477-2.14h9.764L155.784.01h-34.856l-.805 1.223zm37.544-.012l.805 1.223 4.495.04c5.452.046 5.452.046 4.656 1.22-.646.955-.646.955-5.88.955h-4.567l-2.18 3.316c-1.2 1.822-2.282 3.474-2.406 3.67l-.224.354h5.198l3.125-4.77h1.89c1.683 0 1.91.023 2.09.22.297.328.267.513-.405 2.532-.334 1.003-.607 1.866-.607 1.92 0 .054 1.163.098 2.592.098h2.593l.5-2.018c.608-2.46.62-2.78.13-3.242-.212-.2-.545-.395-.763-.446-.35-.083-.315-.1.375-.182 1.018-.12 1.947-.4 2.46-.746.465-.314 2.215-2.87 2.4-3.507.186-.647-.1-1.185-.8-1.514-.58-.27-.63-.273-8.433-.31L156.862 0l.805 1.223z" fill="#FFF" fill-rule="evenodd"/></svg>
